<svg width="1136" height="564" viewBox="0 0 1136 564" fill="none" xmlns="http://www.w3.org/2000/svg">
<rect y="450.882" width="70" height="113" rx="6" fill="#E03D4D"/>
<rect x="82" y="367.882" width="70" height="196" rx="6" fill="#E03D4D"/>
<rect x="164" y="332.882" width="70" height="231" rx="6" fill="#E03D4D"/>
<rect x="246" y="223.882" width="70" height="340" rx="6" fill="#E78A38"/>
<rect x="328" y="319.882" width="70" height="244" rx="6" fill="#E78A38"/>
<rect x="410" y="62.8816" width="70" height="501" rx="6" fill="#E78A38"/>
<rect x="492" y="110.882" width="70" height="453" rx="6" fill="#2EB88A"/>
<rect x="574" y="0.881592" width="70" height="563" rx="6" fill="#2EB88A"/>
<rect x="656" y="358.411" width="70" height="205.471" rx="6" fill="#2EB88A"/>
<rect x="738" y="160.882" width="70" height="403" rx="6" fill="#2662D9"/>
<rect x="820" y="261.882" width="70" height="302" rx="6" fill="#2662D9"/>
<rect width="70" height="250.297" rx="8" transform="matrix(1 0 0 -1 902 563.882)" fill="#2662D9"/>
<rect x="984" y="261.882" width="70" height="302" rx="6" fill="#7857DB"/>
<rect width="70" height="99" rx="8" transform="matrix(1 0 0 -1 1066 563.882)" fill="#DB57C7"/>
</svg>
